<?xml version="1.0" standalone="no"?>
<!DOCTYPE svg PUBLIC "-//W3C//DTD SVG 20010904//EN"
 "http://www.w3.org/TR/2001/REC-SVG-20010904/DTD/svg10.dtd">
<svg version="1.0" xmlns="http://www.w3.org/2000/svg"
 width="48.000000pt" height="48.000000pt" viewBox="0 0 48.000000 48.000000"
 preserveAspectRatio="xMidYMid meet">

<g transform="translate(0.000000,48.000000) scale(0.100000,-0.100000)"
fill="#000000" stroke="none">
<path d="M213 438 c-13 -6 -23 -15 -23 -20 0 -4 -8 -8 -17 -8 -25 -1 -107
-117 -122 -173 -8 -25 -11 -57 -7 -70 9 -37 65 -58 160 -63 68 -3 73 -2 35 5
-76 15 -110 44 -130 113 -7 25 -4 32 23 56 18 15 39 34 48 43 14 14 20 13 56
-3 21 -9 53 -18 71 -18 34 0 83 -41 83 -70 0 -26 -39 -79 -72 -100 l-33 -20
31 0 c41 0 138 50 142 73 2 10 -3 26 -11 35 -8 9 -17 38 -20 65 -8 56 -32 107
-51 107 -8 0 -26 14 -39 30 -21 24 -33 30 -64 29 -21 0 -48 -5 -60 -11z"/>
<path d="M307 253 c-10 -9 -9 -23 2 -23 5 0 11 7 15 15 5 15 -5 20 -17 8z"/>
<path d="M165 240 c3 -5 8 -10 11 -10 2 0 4 5 4 10 0 6 -5 10 -11 10 -5 0 -7
-4 -4 -10z"/>
<path d="M230 178 c0 -5 9 -8 19 -8 11 0 22 3 24 8 3 4 -6 7 -19 7 -13 0 -24
-3 -24 -7z"/>
</g>
</svg>
